<?xml version="1.0" encoding="utf-8"?>
<!-- Generator: Adobe Illustrator 16.0.0, SVG Export Plug-In . SVG Version: 6.00 Build 0)  -->
<!DOCTYPE svg PUBLIC "-//W3C//DTD SVG 1.1//EN" "http://www.w3.org/Graphics/SVG/1.1/DTD/svg11.dtd">
<svg version="1.1" id="Layer_1" xmlns="http://www.w3.org/2000/svg" xmlns:xlink="http://www.w3.org/1999/xlink" x="0px" y="0px"
	 width="612px" height="792px" viewBox="0 0 612 792" enable-background="new 0 0 612 792" xml:space="preserve">
<path fill="#2D2C28" d="M90.678,409.2h6.808V377h-6.808v12.926h-12.88V377H70.99v32.2h6.808v-13.294h12.88V409.2z"/>
<path fill="#2D2C28" d="M103.466,409.2h20.976v-5.98h-14.168v-7.268h12.65v-5.98h-12.65v-6.992h13.938V377h-20.746V409.2z"/>
<path fill="#2D2C28" d="M151.673,403.22H136.31V377h-6.808v32.2h22.172V403.22z"/>
<path fill="#2D2C28" d="M155.123,409.2h6.808v-10.856c0.184,0.031,0.46,0.062,0.828,0.092c0.368,0.031,0.759,0.054,1.173,0.069
	c0.414,0.016,0.805,0.023,1.173,0.023c0.368,0,0.628,0,0.782,0c1.717,0,3.388-0.207,5.014-0.621s3.074-1.065,4.347-1.955
	c1.272-0.889,2.292-2.047,3.059-3.473c0.766-1.426,1.15-3.151,1.15-5.175c0-2.3-0.445-4.147-1.334-5.543
	c-0.89-1.395-2.032-2.484-3.427-3.266c-1.396-0.782-2.967-1.303-4.715-1.564c-1.748-0.26-3.481-0.391-5.198-0.391
	c-1.687,0-3.374,0.069-5.06,0.207c-1.687,0.138-3.22,0.33-4.6,0.575V409.2z M167.796,382.704c0.843,0.123,1.594,0.353,2.254,0.69
	c0.659,0.338,1.188,0.805,1.587,1.403c0.398,0.598,0.598,1.388,0.598,2.369c0,1.166-0.215,2.093-0.644,2.783
	c-0.43,0.69-0.989,1.235-1.679,1.633c-0.69,0.399-1.48,0.66-2.369,0.782c-0.89,0.123-1.779,0.184-2.668,0.184
	c-0.154,0-0.361-0.007-0.621-0.023c-0.261-0.015-0.545-0.03-0.851-0.046c-0.307-0.015-0.598-0.038-0.874-0.069
	c-0.276-0.03-0.476-0.061-0.598-0.092v-9.568c0.368-0.092,0.851-0.153,1.449-0.184c0.598-0.03,1.219-0.046,1.863-0.046
	C166.101,382.52,166.952,382.582,167.796,382.704z"/>
<path fill="#2D2C28" d="M194.314,409.2h6.808v-12.742h12.834v-5.98h-12.834v-7.498h13.938V377h-20.746V409.2z"/>
<path fill="#2D2C28" d="M238.658,397.194c0,2.331-0.491,4.01-1.472,5.037c-0.982,1.028-2.484,1.541-4.508,1.541
	c-2.116,0-3.711-0.483-4.784-1.449c-1.074-0.966-1.61-2.675-1.61-5.129V377h-6.808v21.436c0,3.772,1.134,6.601,3.404,8.487
	c2.269,1.886,5.566,2.829,9.89,2.829c1.809,0,3.473-0.238,4.991-0.713s2.821-1.203,3.91-2.185c1.088-0.981,1.932-2.238,2.53-3.772
	c0.598-1.533,0.897-3.342,0.897-5.428V377h-6.44V397.194z"/>
<path fill="#2D2C28" d="M272.79,409.43h4.922V377h-6.44v16.882l0.736,4.738h-0.276l-2.622-4.692l-13.294-17.158h-4.922v32.43h6.44
	v-16.744l-0.736-4.876h0.23l2.76,4.83L272.79,409.43z"/>
<path fill="#2D2C28" d="M283.691,409.246c0.429,0.061,1.065,0.115,1.909,0.161c0.843,0.046,1.748,0.092,2.714,0.138
	c0.966,0.046,1.901,0.084,2.806,0.115c0.904,0.03,1.617,0.046,2.139,0.046c3.312,0,6.102-0.476,8.372-1.426
	c2.269-0.95,4.109-2.215,5.52-3.795c1.411-1.579,2.43-3.381,3.059-5.405c0.628-2.024,0.943-4.109,0.943-6.256
	c0-2.361-0.322-4.538-0.966-6.532c-0.644-1.993-1.664-3.71-3.059-5.152s-3.189-2.568-5.382-3.381
	c-2.193-0.812-4.823-1.219-7.889-1.219c-0.706,0-1.503,0.008-2.392,0.023c-0.89,0.016-1.802,0.039-2.737,0.069
	c-0.936,0.031-1.84,0.077-2.714,0.138c-0.874,0.062-1.649,0.138-2.323,0.23V409.246z M299.102,383.509
	c1.226,0.66,2.2,1.495,2.921,2.507c0.72,1.012,1.219,2.131,1.495,3.358s0.414,2.408,0.414,3.542c0,1.38-0.154,2.714-0.46,4.002
	c-0.307,1.288-0.836,2.438-1.587,3.45c-0.752,1.012-1.771,1.825-3.059,2.438c-1.288,0.614-2.914,0.92-4.876,0.92
	c-0.154,0-0.391-0.007-0.713-0.023c-0.322-0.015-0.66-0.03-1.012-0.046c-0.353-0.015-0.69-0.03-1.012-0.046
	c-0.322-0.015-0.56-0.038-0.713-0.069v-20.884c0.398-0.061,0.966-0.099,1.702-0.115c0.736-0.015,1.456-0.023,2.162-0.023
	C296.295,382.52,297.875,382.85,299.102,383.509z"/>
<path fill="#2D2C28" d="M346.021,409.2h7.222l-12.65-32.43h-5.014l-12.604,32.43h6.808l2.622-6.854h10.856L346.021,409.2z
	 M336.729,390.294l1.104-5.152h0.23l1.104,5.106l2.484,6.716h-7.36L336.729,390.294z"/>
<path fill="#2D2C28" d="M366.721,409.2h6.808v-12.742h12.834v-5.98h-12.834v-7.498h13.938V377h-20.746V409.2z"/>
<path fill="#2D2C28" d="M411.064,397.194c0,2.331-0.491,4.01-1.472,5.037c-0.982,1.028-2.484,1.541-4.508,1.541
	c-2.116,0-3.711-0.483-4.784-1.449c-1.074-0.966-1.61-2.675-1.61-5.129V377h-6.808v21.436c0,3.772,1.134,6.601,3.404,8.487
	c2.269,1.886,5.566,2.829,9.89,2.829c1.809,0,3.473-0.238,4.991-0.713s2.821-1.203,3.91-2.185c1.088-0.981,1.932-2.238,2.53-3.772
	c0.598-1.533,0.897-3.342,0.897-5.428V377h-6.44V397.194z"/>
<path fill="#2D2C28" d="M448.094,377h-27.232v5.98h10.212v26.22h6.808v-26.22h10.212V377z"/>
<path fill="#2D2C28" d="M470.633,397.194c0,2.331-0.491,4.01-1.472,5.037c-0.982,1.028-2.484,1.541-4.508,1.541
	c-2.116,0-3.711-0.483-4.784-1.449c-1.074-0.966-1.61-2.675-1.61-5.129V377h-6.808v21.436c0,3.772,1.134,6.601,3.404,8.487
	c2.269,1.886,5.566,2.829,9.89,2.829c1.809,0,3.473-0.238,4.991-0.713s2.821-1.203,3.91-2.185c1.088-0.981,1.932-2.238,2.53-3.772
	c0.598-1.533,0.897-3.342,0.897-5.428V377h-6.44V397.194z"/>
<path fill="#2D2C28" d="M482.869,409.2h6.808v-13.018l3.588,0.552l8.004,12.466h7.912l-8.05-12.19l-2.438-1.426
	c2.3-0.613,4.101-1.771,5.405-3.473c1.303-1.702,1.955-3.871,1.955-6.509c0-1.778-0.384-3.258-1.15-4.439
	c-0.767-1.18-1.771-2.108-3.013-2.783c-1.242-0.674-2.653-1.15-4.232-1.426c-1.58-0.276-3.182-0.414-4.807-0.414
	c-0.706,0-1.479,0.016-2.323,0.046c-0.844,0.031-1.71,0.077-2.599,0.138c-0.89,0.062-1.771,0.146-2.645,0.253
	s-1.679,0.223-2.415,0.345V409.2z M497.405,383.578c0.95,0.706,1.426,1.733,1.426,3.082c0,1.81-0.56,3.082-1.679,3.818
	c-1.12,0.736-2.645,1.104-4.577,1.104h-2.898v-8.878c0.398-0.092,0.927-0.146,1.587-0.161c0.659-0.015,1.341-0.023,2.047-0.023
	C495.089,382.52,496.454,382.873,497.405,383.578z"/>
<path fill="#2D2C28" d="M512.86,409.2h20.976v-5.98h-14.168v-7.268h12.65v-5.98h-12.65v-6.992h13.938V377H512.86V409.2z"/>
</svg>
